# This file uses centimeters as units for non-parametric coordinates.

v -181.784302 0.000000 -54.377998
v -185.379547 0.000000 -52.580376
v -185.604248 0.000000 -42.918171
v -184.256027 0.000000 -41.569958
v -186.503067 0.000000 -38.873528
v -186.727768 0.000000 -13.032743
v -186.053650 0.000000 -11.010422
v -186.503067 0.000000 -8.763395
v -184.031326 0.000000 -2.921133
v -164.482208 0.000000 -2.696430
v -162.909302 0.000000 -4.044645
v -147.180115 0.000000 -3.370537
v -137.742615 0.000000 1.123513
v -130.552139 0.000000 0.898810
v -116.620583 0.000000 -2.247025
v -102.239624 0.000000 -2.247025
v -84.937538 0.000000 2.471727
v -75.500031 0.000000 0.449405
v -54.602703 0.000000 0.449405
v -26.065491 0.000000 0.449405
v -19.549118 0.000000 -2.696430
v -12.808040 0.000000 -2.921133
v -7.639885 0.000000 0.898810
v 0.000000 0.000000 0.000000
v 2.247025 0.000000 -4.494050
v 2.247025 0.000000 -9.662207
v -0.449406 0.000000 -23.369057
v -0.224702 0.000000 -34.828884
v 2.247025 0.000000 -49.883949
v -7.190479 0.000000 -57.074429
v -13.706851 0.000000 -54.602703
v -31.458347 0.000000 -57.074429
v -48.760437 0.000000 -51.007462
v -92.128021 0.000000 -51.681568
v -95.947960 0.000000 -53.703892
v -184.744171 0.000000 -42.058094
v -182.581070 0.000000 -53.979618
v -13.706851 19.329624 -58.590176
v -0.224702 19.329624 -38.816360
v 2.247025 19.329624 -53.871429
v -7.190479 19.329624 -61.061909
v -184.744171 19.329624 -46.045574
v -182.581070 19.329624 -57.967098
v -185.379547 19.329624 -56.567852
v -185.604248 19.329624 -46.905651
v -12.808040 19.329624 -6.908611
v 2.247025 19.329624 -8.481529
v -7.639885 19.329624 -3.088668
v 0.000000 19.329624 -3.987479
v -181.784302 19.329624 -58.365475
v -184.256027 19.329624 -45.557438
v -95.947960 19.329624 -57.691372
v -186.053650 19.329624 -14.997900
v -186.503067 19.329624 -42.861008
v -186.727768 19.329624 -17.020224
v -164.482208 19.329624 -6.683909
v -162.909302 19.329624 -8.032124
v -186.503067 19.329624 -12.750874
v -184.031326 19.329624 -6.908611
v -116.620583 19.329624 -6.234504
v -147.180115 19.329624 -7.358016
v -137.742615 19.329624 -2.863966
v -130.552139 19.329624 -3.088668
v -102.239624 19.329624 -6.234504
v -92.128021 19.329624 -55.669044
v -84.937538 19.329624 -1.515751
v -75.500031 19.329624 -3.538073
v -48.760437 19.329624 -54.994942
v -54.602703 19.329624 -3.538073
v -26.065491 19.329624 -3.538073
v -31.458347 19.329624 -61.061909
v -19.549118 19.329624 -6.683909
v -0.449406 19.329624 -27.356533
v 2.247025 19.329624 -13.649685
vt 0.185222 0.891198
vt 0.200152 0.882112
vt 0.245504 0.874706
vt 0.259186 0.875338
vt 0.271821 0.874708
vt 0.359385 0.876342
vt 0.365760 0.877266
vt 0.372321 0.877102
vt 0.390989 0.876196
vt 0.445469 0.879532
vt 0.452516 0.880775
vt 0.491374 0.881826
vt 0.517320 0.881123
vt 0.534497 0.882319
vt 0.565295 0.885191
vt 0.593285 0.886755
vt 0.625252 0.887046
vt 0.641001 0.889065
vt 0.671392 0.889162
vt 0.716591 0.884897
vt 0.734116 0.881309
vt 0.755909 0.877765
vt 0.779213 0.873512
vt 0.807476 0.873715
vt 0.824581 0.876342
vt 0.840603 0.878559
vt 0.878492 0.881477
vt 0.905878 0.883421
vt 0.939829 0.884975
vt 0.966181 0.886173
vt 0.012727 0.890407
vt 0.038404 0.892129
vt 0.061237 0.893588
vt 0.101511 0.895136
vt 0.104814 0.895560
vt 0.253538 0.875134
vt 0.186257 0.888590
vt 0.894306 0.637076
vt 0.927024 0.649486
vt 0.974408 0.613384
vt 0.961998 0.537795
vt 0.035551 0.574092
vt 0.031233 0.578410
vt 0.032361 0.626922
vt 0.046412 0.633948
vt 0.974408 0.385488
vt 0.963126 0.362924
vt 0.924767 0.358411
vt 0.898819 0.377590
vt 0.050412 0.635948
vt 0.481385 0.632563
vt 0.038002 0.571641
vt 0.028977 0.418205
vt 0.025592 0.428359
vt 0.026720 0.558102
vt 0.145181 0.383231
vt 0.137284 0.376462
vt 0.039130 0.377590
vt 0.026720 0.406923
vt 0.377590 0.374206
vt 0.307642 0.358411
vt 0.271540 0.357283
vt 0.224155 0.379847
vt 0.500564 0.622410
vt 0.449795 0.374206
vt 0.584051 0.360667
vt 0.536667 0.350513
vt 0.718307 0.619025
vt 0.805178 0.649486
vt 0.832255 0.360667
vt 0.688974 0.360667
vt 0.864973 0.376462
vt 0.960870 0.480256
vt 0.974408 0.411436
vt 0.913286 0.925781
vt 0.944946 0.925898
vt 0.968761 0.925637
vt 0.012663 0.918331
vt 0.183153 0.922191
vt 0.194399 0.929140
vt 0.237121 0.934062
vt 0.245190 0.933858
vt 0.755987 0.933162
vt 0.780457 0.933071
vt 0.811413 0.932127
vt 0.830593 0.931723
vt 0.183087 0.919609
vt 0.250705 0.933847
vt 0.104677 0.913510
vt 0.262164 0.935074
vt 0.350644 0.932387
vt 0.358167 0.931366
vt 0.444204 0.929120
vt 0.451474 0.929369
vt 0.365722 0.930970
vt 0.387179 0.929052
vt 0.490484 0.928815
vt 0.516703 0.926423
vt 0.534355 0.925700
vt 0.565397 0.924926
vt 0.593060 0.923352
vt 0.101443 0.913388
vt 0.624933 0.920713
vt 0.640940 0.920358
vt 0.671667 0.919991
vt 0.716951 0.923003
vt 0.038188 0.918264
vt 0.061046 0.914468
vt 0.734272 0.929092
vt 0.848156 0.930771
vt 0.886969 0.928017
vt 0.894306 0.637076
vt 0.961998 0.537795
vt 0.974408 0.613384
vt 0.927024 0.649486
vt 0.035551 0.574092
vt 0.046412 0.633948
vt 0.032361 0.626922
vt 0.031233 0.578410
vt 0.974408 0.385488
vt 0.898819 0.377590
vt 0.924767 0.358411
vt 0.963126 0.362924
vt 0.050412 0.635948
vt 0.038002 0.571641
vt 0.481385 0.632563
vt 0.028977 0.418205
vt 0.026720 0.558102
vt 0.025592 0.428359
vt 0.137284 0.376462
vt 0.145181 0.383231
vt 0.026720 0.406923
vt 0.039130 0.377590
vt 0.377590 0.374206
vt 0.224155 0.379847
vt 0.271540 0.357283
vt 0.307642 0.358411
vt 0.449795 0.374206
vt 0.500564 0.622410
vt 0.536667 0.350513
vt 0.584051 0.360667
vt 0.718307 0.619025
vt 0.688974 0.360667
vt 0.832255 0.360667
vt 0.805178 0.649486
vt 0.864973 0.376462
vt 0.960870 0.480256
vt 0.974408 0.411436
vt 0.980951 0.885150
vt 0.982441 0.923496
vn 0.000000 1.000000 -0.000000
vn 0.000000 1.000000 -0.000000
vn 0.000000 1.000000 -0.000000
vn 0.000000 1.000000 -0.000000
vn 0.000000 1.000000 -0.000000
vn 0.000000 1.000000 -0.000000
vn 0.000000 1.000000 0.000000
vn 0.000000 1.000000 0.000000
vn 0.000000 1.000000 -0.000000
vn 0.000000 1.000000 -0.000000
vn 0.000000 1.000000 0.000000
vn 0.000000 1.000000 0.000000
vn 0.000000 1.000000 -0.000000
vn 0.000000 1.000000 -0.000000
vn 0.000000 1.000000 -0.000000
vn 0.000000 1.000000 -0.000000
vn 0.000000 1.000000 -0.000000
vn 0.000000 1.000000 -0.000000
vn 0.000000 1.000000 0.000000
vn 0.000000 1.000000 -0.000000
vn 0.000000 1.000000 0.000000
vn 0.000000 1.000000 0.000000
vn 0.000000 1.000000 -0.000000
vn 0.000000 1.000000 -0.000000
vn 0.000000 1.000000 0.000000
vn 0.000000 1.000000 0.000000
vn 0.000000 1.000000 -0.000000
vn 0.000000 1.000000 -0.000000
vn 0.000000 1.000000 0.000000
vn 0.000000 1.000000 -0.000000
vn 0.000000 1.000000 -0.000000
vn 0.000000 1.000000 -0.000000
vn 0.000000 1.000000 0.000000
vn 0.000000 1.000000 0.000000
vn 0.000000 1.000000 0.000000
vn 0.000000 1.000000 -0.000000
vn 0.000000 1.000000 -0.000000
vn 0.000000 -1.000000 0.000000
vn 0.000000 -1.000000 0.000000
vn 0.000000 -1.000000 0.000000
vn 0.000000 -1.000000 0.000000
vn 0.000000 -1.000000 0.000000
vn 0.000000 -1.000000 0.000000
vn 0.000000 -1.000000 0.000000
vn 0.000000 -1.000000 0.000000
vn 0.000000 -1.000000 0.000000
vn 0.000000 -1.000000 0.000000
vn 0.000000 -1.000000 0.000000
vn 0.000000 -1.000000 0.000000
vn 0.000000 -1.000000 0.000000
vn 0.000000 -1.000000 0.000000
vn 0.000000 -1.000000 0.000000
vn 0.000000 -1.000000 0.000000
vn 0.000000 -1.000000 0.000000
vn 0.000000 -1.000000 0.000000
vn 0.000000 -1.000000 0.000000
vn 0.000000 -1.000000 0.000000
vn 0.000000 -1.000000 0.000000
vn 0.000000 -1.000000 0.000000
vn 0.000000 -1.000000 0.000000
vn 0.000000 -1.000000 0.000000
vn 0.000000 -1.000000 0.000000
vn 0.000000 -1.000000 0.000000
vn 0.000000 -1.000000 0.000000
vn 0.000000 -1.000000 0.000000
vn 0.000000 -1.000000 0.000000
vn 0.000000 -1.000000 0.000000
vn 0.000000 -1.000000 0.000000
vn 0.000000 -1.000000 0.000000
vn 0.000000 -1.000000 0.000000
vn 0.000000 -1.000000 0.000000
vn 0.000000 -1.000000 0.000000
vn 0.000000 -1.000000 0.000000
vn 0.000000 -1.000000 0.000000
vn 0.986238 0.033402 0.161920
vn 0.986239 0.033402 0.161920
vn 0.986238 0.033402 0.161920
vn 0.986238 0.033402 0.161920
vn 0.598046 -0.161923 -0.784935
vn 0.598046 -0.161923 -0.784935
vn 0.598046 -0.161923 -0.784935
vn 0.598046 -0.161923 -0.784935
vn -0.348236 -0.189388 -0.918076
vn -0.348236 -0.189388 -0.918076
vn -0.348236 -0.189388 -0.918076
vn -0.348236 -0.189388 -0.918076
vn -0.439792 -0.181447 -0.879580
vn -0.439792 -0.181447 -0.879580
vn -0.439792 -0.181447 -0.879580
vn -0.439792 -0.181447 -0.879580
vn -0.999718 -0.004796 -0.023249
vn -0.999718 -0.004796 -0.023249
vn -0.999718 -0.004796 -0.023249
vn -0.999718 -0.004796 -0.023249
vn -0.699703 0.144341 0.699701
vn -0.699703 0.144341 0.699701
vn -0.699703 0.144341 0.699701
vn -0.699703 0.144341 0.699701
vn -0.586377 0.163656 0.793334
vn -0.586377 0.163656 0.793334
vn -0.586377 0.163656 0.793334
vn -0.586377 0.163656 0.793334
vn 0.114464 0.200707 0.972941
vn 0.114464 0.200707 0.972941
vn 0.114464 0.200707 0.972941
vn 0.114464 0.200707 0.972941
vn 0.890645 0.091865 0.445323
vn 0.890645 0.091865 0.445323
vn 0.890645 0.091865 0.445323
vn 0.890645 0.091865 0.445323
vn -0.439782 -0.181446 -0.879585
vn -0.439782 -0.181446 -0.879584
vn -0.439782 -0.181446 -0.879584
vn -0.439782 -0.181446 -0.879584
vn -0.699696 0.144347 0.699707
vn -0.699696 0.144347 0.699707
vn -0.699696 0.144347 0.699707
vn -0.699696 0.144347 0.699707
vn 0.007691 -0.202028 -0.979349
vn 0.007691 -0.202028 -0.979349
vn 0.007691 -0.202028 -0.979349
vn 0.007691 -0.202028 -0.979349
vn -0.761606 -0.130927 -0.634676
vn -0.761606 -0.130927 -0.634676
vn -0.761606 -0.130927 -0.634676
vn -0.761606 -0.130927 -0.634676
vn -0.999961 -0.001794 -0.008695
vn -0.999961 -0.001794 -0.008695
vn -0.999961 -0.001794 -0.008695
vn -0.999961 -0.001794 -0.008695
vn -0.946670 0.065096 0.315562
vn -0.946670 0.065096 0.315562
vn -0.946670 0.065096 0.315562
vn -0.946670 0.065096 0.315562
vn 0.642955 0.154740 0.750109
vn 0.642955 0.154740 0.750109
vn 0.642955 0.154740 0.750109
vn 0.642955 0.154740 0.750109
vn -0.979778 -0.040425 -0.195961
vn -0.979778 -0.040425 -0.195961
vn -0.979778 -0.040425 -0.195961
vn -0.979778 -0.040425 -0.195961
vn -0.918006 0.080120 0.388389
vn -0.918006 0.080120 0.388389
vn -0.918006 0.080120 0.388389
vn -0.918006 0.080120 0.388389
vn -0.011257 0.202022 0.979316
vn -0.011257 0.202022 0.979316
vn -0.011257 0.202022 0.979316
vn -0.011257 0.202022 0.979316
vn -0.422665 0.183101 0.887597
vn -0.422665 0.183101 0.887597
vn -0.422665 0.183101 0.887597
vn -0.422665 0.183101 0.887597
vn 0.030591 0.201940 0.978920
vn 0.030591 0.201940 0.978920
vn 0.030591 0.201940 0.978920
vn 0.030591 0.201940 0.978920
vn 0.215933 0.197268 0.956273
vn 0.215933 0.197268 0.956273
vn 0.215933 0.197268 0.956273
vn 0.215933 0.197268 0.956273
vn -0.041936 0.201857 0.978517
vn -0.041936 0.201857 0.978517
vn -0.041936 0.201857 0.978517
vn -0.041936 0.201857 0.978517
vn 0.000000 0.202035 0.979378
vn 0.000000 0.202035 0.979378
vn 0.000000 0.202035 0.979378
vn 0.000000 0.202035 0.979378
vn 0.460300 -0.179359 -0.869456
vn 0.460300 -0.179359 -0.869456
vn 0.460300 -0.179359 -0.869456
vn 0.460300 -0.179359 -0.869456
vn -0.258056 0.195192 0.946207
vn -0.258056 0.195192 0.946207
vn -0.258056 0.195192 0.946207
vn -0.258056 0.195192 0.946207
vn 0.205392 0.197727 0.958498
vn 0.205392 0.197727 0.958498
vn 0.205392 0.197727 0.958498
vn 0.205392 0.197727 0.958498
vn 0.000000 0.202034 0.979378
vn 0.000000 0.202034 0.979378
vn 0.000000 0.202034 0.979378
vn 0.000000 0.202034 0.979378
vn -0.324799 -0.191081 -0.926279
vn -0.324799 -0.191081 -0.926279
vn -0.324799 -0.191081 -0.926279
vn -0.324799 -0.191081 -0.926279
vn 0.000000 0.202034 0.979379
vn 0.000000 0.202034 0.979379
vn 0.000000 0.202034 0.979379
vn 0.000000 0.202034 0.979379
vn 0.015222 -0.202011 -0.979265
vn 0.015222 -0.202011 -0.979265
vn 0.015222 -0.202011 -0.979265
vn 0.015222 -0.202011 -0.979265
vn 0.427436 0.182648 0.885403
vn 0.427436 0.182648 0.885403
vn 0.427436 0.182648 0.885403
vn 0.427436 0.182648 0.885403
vn 0.032629 0.201927 0.978857
vn 0.032629 0.201927 0.978857
vn 0.032629 0.201927 0.978857
vn 0.032629 0.201927 0.978857
vn 1.000000 -0.000000 0.000000
vn 1.000000 -0.000000 0.000000
vn 1.000000 -0.000000 0.000000
vn 1.000000 -0.000000 0.000000
vn 0.980418 -0.039787 -0.192869
vn 0.980418 -0.039787 -0.192869
vn 0.980418 -0.039787 -0.192869
vn 0.980418 -0.039787 -0.192869
vn 0.999800 0.004044 0.019604
vn 0.999800 0.004044 0.019604
vn 0.999800 0.004044 0.019604
vn 0.999800 0.004044 0.019604
vn 0.135119 -0.200182 -0.970397
vn 0.135119 -0.200182 -0.970397
vn 0.135119 -0.200182 -0.970397
vn 0.135119 -0.200182 -0.970397
f 38/112/1 39/113/2 40/114/3 41/115/4
f 42/116/5 43/117/6 44/118/7 45/119/8
f 47/120/9 46/121/10 48/122/11 49/123/12
f 50/124/13 43/117/6 42/116/5 51/125/14 52/126/15
f 53/127/16 51/125/14 54/128/17 55/129/18
f 52/126/15 51/125/14 53/127/16 56/130/19 57/131/20
f 56/130/19 53/127/16 58/132/21 59/133/22
f 60/134/23 61/135/24 62/136/25 63/137/26
f 52/126/15 57/131/20 61/135/24 60/134/23 64/138/27 65/139/28
f 65/139/28 64/138/27 66/140/29 67/141/30
f 68/142/31 69/143/32 70/144/33 71/145/34
f 65/139/28 67/141/30 69/143/32 68/142/31
f 71/145/34 70/144/33 72/146/35
f 71/145/34 72/146/35 46/121/10
f 73/147/36 46/121/10 47/120/9 74/148/37
f 71/145/34 46/121/10 73/147/36 39/113/2 38/112/1
f 31/38/38 30/39/39 29/40/40 28/41/41
f 36/42/42 3/43/43 2/44/44 37/45/45
f 25/46/46 24/47/47 23/48/48 22/49/49
f 1/50/50 35/51/51 4/52/52 36/42/42 37/45/45
f 7/53/53 6/54/54 5/55/55 4/52/52
f 35/51/51 11/56/56 10/57/57 7/53/53 4/52/52
f 10/57/57 9/58/58 8/59/59 7/53/53
f 15/60/60 14/61/61 13/62/62 12/63/63
f 35/51/51 34/64/64 16/65/65 15/60/60 12/63/63 11/56/56
f 34/64/64 18/66/66 17/67/67 16/65/65
f 33/68/68 32/69/69 20/70/70 19/71/71
f 34/64/64 33/68/68 19/71/71 18/66/66
f 32/69/69 21/72/72 20/70/70
f 32/69/69 22/49/49 21/72/72
f 27/73/73 26/74/74 25/46/46 22/49/49
f 32/69/69 31/38/38 28/41/41 27/73/73 22/49/49
f 28/28/75 29/29/76 40/76/77 39/75/78
f 29/29/79 30/30/80 41/77/81 40/76/82
f 30/30/83 31/149/84 38/150/85 41/77/86
f 37/37/87 2/2/88 44/80/89 43/79/90
f 2/2/91 3/3/92 45/81/93 44/80/94
f 3/3/95 36/36/96 42/82/97 45/81/98
f 22/22/99 23/23/100 48/84/101 46/83/102
f 23/23/103 24/24/104 49/85/105 48/84/106
f 24/24/107 25/25/108 47/86/109 49/85/110
f 1/1/111 37/37/112 43/79/113 50/87/114
f 36/36/115 4/4/116 51/88/117 42/82/118
f 35/35/119 1/1/120 50/87/121 52/89/122
f 4/4/123 5/5/124 54/90/125 51/88/126
f 5/5/127 6/6/128 55/91/129 54/90/130
f 6/6/131 7/7/132 53/92/133 55/91/134
f 10/10/135 11/11/136 57/94/137 56/93/138
f 7/7/139 8/8/140 58/95/141 53/92/142
f 8/8/143 9/9/144 59/96/145 58/95/146
f 9/9/147 10/10/148 56/93/149 59/96/150
f 12/12/151 13/13/152 62/98/153 61/97/154
f 13/13/155 14/14/156 63/99/157 62/98/158
f 14/14/159 15/15/160 60/100/161 63/99/162
f 11/11/163 12/12/164 61/97/165 57/94/166
f 15/15/167 16/16/168 64/101/169 60/100/170
f 34/34/171 35/35/172 52/89/173 65/102/174
f 16/16/175 17/17/176 66/103/177 64/101/178
f 17/17/179 18/18/180 67/104/181 66/103/182
f 19/19/183 20/20/184 70/106/185 69/105/186
f 32/32/187 33/33/188 68/108/189 71/107/190
f 18/18/191 19/19/192 69/105/193 67/104/194
f 33/33/195 34/34/196 65/102/197 68/108/198
f 20/20/199 21/21/200 72/109/201 70/106/202
f 21/21/203 22/22/204 46/83/205 72/109/206
f 25/25/207 26/26/208 74/110/209 47/86/210
f 26/26/211 27/27/212 73/111/213 74/110/214
f 27/27/215 28/28/216 39/75/217 73/111/218
f 31/31/219 32/32/220 71/107/221 38/78/222
