# This file uses centimeters as units for non-parametric coordinates.

v 1.026456 0.411567 -0.536877
v 4.630089 0.300795 -0.785605
v 1.026456 1.411567 -0.536877
v 4.630089 0.448326 -0.785605
v 0.000000 1.938041 -1.536877
v 4.630089 0.448326 -1.785605
v 0.000000 0.411567 -1.536877
v 4.630089 0.300795 -1.785605
v 3.523259 0.719043 -1.841705
v 3.807587 0.242407 -1.817816
v 4.145880 0.296999 -0.536877
v 3.789619 0.664158 -0.547965
v -0.274753 1.061479 -7.563386
v 3.871127 0.314069 -7.563386
v 3.871127 0.061479 -7.563386
v -0.274753 0.061479 -7.563386
v 3.638954 0.983846 -4.884459
v -0.162287 1.731255 -5.198353
v -0.162287 0.204781 -5.198353
v 3.983592 0.204781 -5.198353
v 1.026456 0.000000 1.000000
v 4.145880 0.000000 1.000000
v 4.145880 0.252591 1.000000
v 1.026456 0.384059 1.000000
v 0.000000 0.000000 0.000000
v 0.000000 1.526474 0.000000
v 3.537930 0.693862 -2.267826
v 3.830417 0.237527 -2.256322
v 3.839797 0.235522 -2.436473
v 4.650780 0.407957 -2.313229
v 4.682772 0.284655 -2.256322
v 4.692152 0.282650 -2.436473
v 4.814797 0.368006 -2.313229
v 4.709568 0.296216 -2.256322
v 4.710852 0.286711 -2.436473
v 4.867492 -0.261738 -2.313229
v 4.744989 -0.296667 -2.256322
v 4.743208 -0.306092 -2.436473
v 4.867492 -1.594181 -2.220682
v 4.744989 -1.629109 -2.163775
v 4.743208 -1.638535 -2.343926
v 4.867492 -2.157598 -2.380119
v 4.744989 -2.220364 -2.357340
v 4.743208 -2.115562 -2.504173
v 4.874873 -2.343258 -2.710393
v 4.792439 -2.451148 -2.742482
v 4.709179 -2.292150 -2.760754
v 4.878623 -2.311006 -3.227332
v 4.803882 -2.412407 -3.287306
v 4.700827 -2.280276 -3.220468
v 4.878623 -2.050336 -3.690597
v 4.803882 -2.151737 -3.750571
v 4.700827 -2.019607 -3.683733
v 4.878623 -1.490966 -4.204782
v 4.803882 -1.592368 -4.264756
v 4.700827 -1.460237 -4.197917
v 4.886505 -0.159832 -5.005848
v 4.785761 -0.195257 -5.095632
v 4.721119 -0.122630 -4.943668
v 4.842631 0.237480 -5.056030
v 4.716267 0.265555 -5.155157
v 4.716268 0.227958 -4.978789
v 4.797602 0.378731 -5.052491
v 4.688693 0.320827 -5.159113
v 4.696958 0.296717 -4.980593
v 4.684128 0.430088 -5.052491
v 4.631077 0.318735 -5.159113
v 4.652069 0.304280 -4.980593
v 3.882697 0.432858 -5.106458
v 3.969316 0.207833 -4.924139
vt 0.055587 0.742435
vt 0.001933 0.742435
vt 0.028760 0.742435
vt 0.055587 0.769261
vt 0.001934 0.769261
vt 0.028760 0.769261
vt 0.055587 0.796088
vt 0.001934 0.796088
vt 0.028760 0.796088
vt 0.055587 0.822915
vt 0.001934 0.822915
vt 0.028760 0.822915
vt 0.055587 0.849741
vt 0.001934 0.849741
vt 0.028760 0.849741
vt 0.055587 0.876568
vt 0.001934 0.876568
vt 0.028760 0.876568
vt 0.055587 0.903395
vt 0.001934 0.903395
vt 0.028760 0.903395
vt 0.055587 0.930222
vt 0.001934 0.930222
vt 0.028761 0.930222
vt 0.139600 0.715447
vt 0.089219 0.715447
vt 0.114409 0.715447
vt 0.139600 0.740638
vt 0.089219 0.740638
vt 0.114409 0.740638
vt 0.139600 0.765828
vt 0.089219 0.765828
vt 0.114409 0.765828
vt 0.139600 0.791018
vt 0.089219 0.791018
vt 0.114409 0.791018
vt 0.139600 0.816209
vt 0.089219 0.816209
vt 0.114409 0.816209
vt 0.014895 0.283714
vt 0.001933 0.295519
vt 0.003767 0.260292
vt 0.055587 0.715608
vt 0.082414 0.715608
vt 0.082414 0.742435
vt 0.028760 0.715608
vt 0.055587 0.715608
vt 0.082414 0.769261
vt 0.082414 0.796088
vt 0.082414 0.822915
vt 0.082414 0.849741
vt 0.082414 0.876568
vt 0.082414 0.903395
vt 0.082414 0.930222
vt 0.082414 0.957048
vt 0.055587 0.957048
vt 0.028761 0.957048
vt 0.164790 0.715447
vt 0.164790 0.740638
vt 0.164790 0.765828
vt 0.164790 0.791018
vt 0.164790 0.816209
vt 0.164790 0.841399
vt 0.139600 0.841399
vt 0.139600 0.841399
vt 0.114409 0.841399
vt 0.001933 0.715608
vt 0.028760 0.715608
vt 0.001935 0.957048
vt 0.114409 0.841399
vt 0.089219 0.841399
vt 0.001933 0.380171
vt 0.001933 0.300006
vt 0.013760 0.300006
vt 0.013760 0.380171
vt 0.404290 0.124545
vt 0.385485 0.139781
vt 0.385230 0.116865
vt 0.447269 0.208953
vt 0.571801 0.208953
vt 0.554931 0.507661
vt 0.430399 0.507661
vt 0.413693 0.083573
vt 0.538225 0.083573
vt 0.500290 0.700603
vt 0.418709 0.700603
vt 0.413693 0.001992
vt 0.445025 0.001992
vt 0.430272 0.778721
vt 0.384096 0.760116
vt 0.364982 0.752415
vt 0.352973 0.554213
vt 0.374141 0.554213
vt 0.405970 0.998008
vt 0.367558 0.983874
vt 0.365238 0.775395
vt 0.456345 0.709021
vt 0.487960 0.708066
vt 0.452521 0.841358
vt 0.430771 0.841358
vt 0.109259 0.128774
vt 0.337167 0.129688
vt 0.315198 0.236397
vt 0.024595 0.211255
vt 0.109259 0.002010
vt 0.366552 0.002010
vt 0.406490 0.149289
vt 0.406490 0.231770
vt 0.316408 0.271544
vt 0.324740 0.487367
vt 0.011210 0.513257
vt 0.024595 0.084491
vt 0.343890 0.708328
vt 0.001933 0.708328
vt 0.595195 0.579947
vt 0.901621 0.557338
vt 0.928846 0.660425
vt 0.677802 0.660425
vt 0.582135 0.285280
vt 0.915785 0.285280
vt 0.914636 0.307348
vt 0.904213 0.507549
vt 0.903458 0.522048
vt 0.967814 0.559930
vt 0.967814 0.640407
vt 0.928846 0.784109
vt 0.677802 0.784109
vt 0.595195 0.703631
vt 0.573084 0.094948
vt 0.906734 0.094948
vt 0.920328 0.553778
vt 0.920328 0.303701
vt 0.940578 0.303701
vt 0.951117 0.553778
vt 0.502876 0.825818
vt 0.562794 0.493452
vt 0.583044 0.493452
vt 0.583044 0.825818
vt 0.926021 0.301883
vt 0.947735 0.213104
vt 0.959568 0.213104
vt 0.964252 0.279077
vt 0.968651 0.213009
vt 0.937406 0.182692
vt 0.937729 0.141486
vt 0.950283 0.141486
vt 0.916713 0.138601
vt 0.914636 0.097158
vt 0.952763 0.096734
vt 0.953763 0.136411
vn 0.000000 0.000000 1.000000
vn 0.000000 0.000000 1.000000
vn 0.000000 0.000000 1.000000
vn 0.000000 0.000000 1.000000
vn 0.301041 0.950939 0.071345
vn 0.286660 0.956593 0.052499
vn 0.290152 0.955278 0.057058
vn 0.301041 0.950939 0.071345
vn 0.000000 0.000000 -1.000000
vn 0.000000 0.000000 -1.000000
vn 0.000000 0.000000 -1.000000
vn 0.000000 0.000000 -1.000000
vn -0.038968 -0.998125 0.047205
vn -0.028247 -0.998653 0.043525
vn -0.024462 -0.998809 0.042225
vn -0.038968 -0.998125 0.047205
vn 1.000000 0.000003 0.000000
vn 1.000000 0.000003 0.000000
vn 1.000000 0.000003 0.000000
vn 1.000000 0.000003 0.000000
vn -0.697816 0.000000 0.716277
vn -0.697816 0.000000 0.716277
vn -0.697816 0.000000 0.716277
vn -0.697816 0.000000 0.716277
vn 0.043705 -0.018322 -0.998877
vn 0.043705 -0.018322 -0.998877
vn 0.043705 -0.018322 -0.998877
vn 0.043705 -0.018322 -0.998877
vn 0.050246 -0.998601 0.016448
vn 0.050246 -0.998601 0.016448
vn 0.369862 0.275133 0.887414
vn 0.369862 0.275133 0.887414
vn 0.369862 0.275133 0.887414
vn 0.369862 0.275133 0.887414
vn 0.241975 0.970270 -0.004882
vn 0.241975 0.970270 -0.004882
vn 0.266253 0.963879 0.006811
vn 0.266253 0.963879 0.006811
vn 0.266253 0.963879 0.006811
vn 0.233249 0.966281 -0.109069
vn 0.230794 0.965921 -0.117182
vn 0.920022 0.389438 0.043565
vn 0.920022 0.389438 0.043565
vn 0.920022 0.389438 0.043565
vn -0.020028 -0.999199 0.034641
vn -0.020028 -0.999199 0.034641
vn -0.011491 -0.998891 0.045663
vn -0.011761 -0.998904 0.045315
vn -0.020028 -0.999199 0.034641
vn -0.020028 -0.999199 0.034641
vn -0.020028 -0.999199 0.034641
vn -0.999019 0.000000 0.044279
vn -0.999019 0.000000 0.044279
vn -0.998976 0.000000 0.045241
vn -0.998966 0.000000 0.045456
vn 0.188532 0.950266 -0.247893
vn 0.188532 0.950266 -0.247893
vn -0.998871 0.000000 0.047500
vn -0.998871 0.000000 0.047500
vn 0.000000 -0.998169 0.060481
vn 0.000000 -0.998169 0.060481
vn 0.909930 0.413047 0.037686
vn 0.922893 0.384743 0.015555
vn 0.945278 0.324891 -0.029938
vn 0.945278 0.324891 -0.029938
vn 0.945278 0.324891 -0.029938
vn -0.017891 -0.974288 -0.224594
vn -0.017891 -0.974288 -0.224594
vn -0.017891 -0.974288 -0.224594
vn -0.017891 -0.974288 -0.224594
vn 0.866763 0.498513 0.014405
vn 0.866763 0.498513 0.014405
vn 0.866763 0.498513 0.014405
vn 0.866763 0.498513 0.014405
vn 0.135790 0.903763 0.405922
vn 0.135790 0.903763 0.405922
vn 0.135790 0.903763 0.405922
vn 0.135790 0.903763 0.405922
vn 0.244372 -0.936677 -0.250837
vn 0.244372 -0.936677 -0.250837
vn 0.244372 -0.936677 -0.250837
vn 0.244372 -0.936677 -0.250837
vn 0.307501 0.861775 0.403467
vn 0.307501 0.861776 0.403467
vn 0.307501 0.861776 0.403467
vn 0.307501 0.861775 0.403467
vn -1.000000 0.000000 0.000000
vn -1.000000 0.000000 0.000000
vn -1.000000 0.000000 0.000000
vn -1.000000 0.000000 0.000000
vn 0.850104 0.526287 0.018573
vn 0.850104 0.526287 0.018573
vn 0.850104 0.526287 0.018573
vn 0.850104 0.526287 0.018573
vn -0.920022 -0.389439 -0.043565
vn -0.920022 -0.389439 -0.043565
vn -0.920022 -0.389439 -0.043565
vn 0.039754 0.139036 0.989489
vn 0.039754 0.139036 0.989489
vn 0.039754 0.139036 0.989489
vn 0.039754 0.139036 0.989489
vn 0.055201 -0.998377 0.013986
vn 0.055201 -0.998377 0.013986
vn 0.055201 -0.998377 0.013986
vn 0.055201 -0.998377 0.013986
vn 0.035904 0.463819 -0.885202
vn 0.035904 0.463819 -0.885202
vn 0.035904 0.463819 -0.885202
vn 0.035904 0.463819 -0.885202
vn 0.071764 0.482368 0.873024
vn 0.071764 0.482368 0.873024
vn 0.071764 0.482368 0.873024
vn 0.071764 0.482368 0.873024
vn 0.324523 -0.945040 0.039796
vn 0.324523 -0.945040 0.039796
vn 0.324523 -0.945040 0.039796
vn 0.324523 -0.945040 0.039796
vn 0.145309 0.739785 -0.656965
vn 0.145309 0.739785 -0.656965
vn 0.145309 0.739785 -0.656965
vn 0.145309 0.739785 -0.656965
vn 0.435035 0.031353 0.899868
vn 0.435035 0.031353 0.899868
vn 0.435035 0.031353 0.899868
vn 0.435035 0.031353 0.899868
vn -0.998361 -0.057070 0.004377
vn -0.998361 -0.057070 0.004377
vn -0.998361 -0.057070 0.004377
vn -0.998361 -0.057070 0.004377
vn 0.719984 0.050089 -0.692181
vn 0.719984 0.050089 -0.692181
vn 0.719984 0.050089 -0.692181
vn 0.719984 0.050089 -0.692181
vn 0.405540 0.063336 0.911880
vn 0.405540 0.063336 0.911880
vn 0.405540 0.063336 0.911880
vn 0.405540 0.063336 0.911880
vn -0.999951 0.000684 0.009850
vn -0.999951 0.000684 0.009850
vn -0.999951 0.000684 0.009850
vn -0.999951 0.000684 0.009850
vn 0.711999 -0.048654 -0.700493
vn 0.711998 -0.048654 -0.700493
vn 0.711999 -0.048654 -0.700493
vn 0.711998 -0.048654 -0.700493
vn 0.393169 -0.268815 0.879294
vn 0.393168 -0.268815 0.879294
vn 0.393168 -0.268815 0.879294
vn 0.393169 -0.268815 0.879294
vn -0.999945 -0.003289 0.009933
vn -0.999945 -0.003289 0.009933
vn -0.999945 -0.003289 0.009933
vn -0.999945 -0.003289 0.009933
vn 0.688091 0.213119 -0.693622
vn 0.688091 0.213119 -0.693622
vn 0.688091 0.213119 -0.693622
vn 0.688091 0.213119 -0.693622
vn 0.559826 -0.696747 0.448485
vn 0.559826 -0.696747 0.448485
vn 0.559826 -0.696747 0.448485
vn 0.559826 -0.696747 0.448485
vn -0.964520 -0.231556 0.126822
vn -0.964520 -0.231556 0.126822
vn -0.964520 -0.231556 0.126822
vn -0.964520 -0.231556 0.126822
vn 0.512613 0.720037 -0.467734
vn 0.512613 0.720037 -0.467734
vn 0.512613 0.720037 -0.467734
vn 0.512613 0.720037 -0.467734
vn 0.805198 -0.592340 -0.028085
vn 0.805198 -0.592340 -0.028085
vn 0.805198 -0.592340 -0.028085
vn 0.805198 -0.592340 -0.028085
vn -0.844146 -0.535298 -0.029569
vn -0.844146 -0.535298 -0.029569
vn -0.844146 -0.535298 -0.029569
vn -0.844146 -0.535298 -0.029569
vn 0.226407 0.973088 0.042898
vn 0.226407 0.973088 0.042898
vn 0.226407 0.973088 0.042898
vn 0.226407 0.973088 0.042898
vn 0.844346 -0.466953 -0.262745
vn 0.844346 -0.466953 -0.262745
vn 0.844346 -0.466953 -0.262745
vn 0.844346 -0.466953 -0.262745
vn -0.820520 -0.498170 -0.280309
vn -0.820520 -0.498170 -0.280309
vn -0.820520 -0.498170 -0.280309
vn -0.820520 -0.498170 -0.280309
vn 0.167172 0.859244 0.483480
vn 0.167172 0.859244 0.483480
vn 0.167172 0.859244 0.483480
vn 0.167172 0.859244 0.483480
vn 0.833558 -0.373856 -0.406709
vn 0.833558 -0.373856 -0.406709
vn 0.833558 -0.373856 -0.406709
vn 0.833558 -0.373856 -0.406709
vn -0.802534 -0.403751 -0.439230
vn -0.802534 -0.403751 -0.439230
vn -0.802534 -0.403751 -0.439230
vn -0.802534 -0.403751 -0.439230
vn 0.143877 0.669706 0.728556
vn 0.143877 0.669706 0.728556
vn 0.143877 0.669706 0.728556
vn 0.143877 0.669706 0.728556
vn 0.749384 -0.337826 -0.569471
vn 0.749384 -0.337826 -0.569471
vn 0.749384 -0.337826 -0.569471
vn 0.749384 -0.337826 -0.569471
vn -0.866977 -0.248390 -0.432035
vn -0.866977 -0.248390 -0.432035
vn -0.866977 -0.248390 -0.432035
vn -0.866977 -0.248390 -0.432035
vn 0.263495 0.481658 0.835809
vn 0.263495 0.481657 0.835809
vn 0.263495 0.481657 0.835809
vn 0.263495 0.481657 0.835809
vn 0.639693 -0.013739 -0.768508
vn 0.639693 -0.013739 -0.768508
vn 0.639693 -0.013739 -0.768508
vn 0.639693 -0.013739 -0.768508
vn -0.977315 -0.110615 -0.180609
vn -0.977315 -0.110615 -0.180609
vn -0.977315 -0.110615 -0.180609
vn -0.977315 -0.110615 -0.180609
vn 0.437530 0.129986 0.889759
vn 0.437530 0.129986 0.889759
vn 0.437530 0.129986 0.889759
vn 0.437530 0.129986 0.889759
vn 0.624186 0.229009 -0.746958
vn 0.624186 0.229009 -0.746958
vn 0.624186 0.229009 -0.746958
vn 0.624186 0.229009 -0.746958
vn -0.934042 -0.354921 -0.039957
vn -0.934042 -0.354921 -0.039957
vn -0.934042 -0.354921 -0.039957
vn -0.934042 -0.354921 -0.039957
vn 0.501214 0.146506 0.852831
vn 0.501214 0.146506 0.852831
vn 0.501214 0.146506 0.852831
vn 0.501214 0.146506 0.852831
vn 0.198326 0.688775 -0.697320
vn 0.198326 0.688775 -0.697320
vn 0.198326 0.688775 -0.697320
vn 0.198325 0.688775 -0.697320
vn -0.053002 -0.993274 -0.102944
vn -0.053002 -0.993274 -0.102944
vn -0.053002 -0.993274 -0.102944
vn -0.053002 -0.993274 -0.102944
vn 0.178640 0.480149 0.858805
vn 0.178640 0.480149 0.858804
vn 0.178640 0.480149 0.858805
vn 0.178640 0.480149 0.858805
vn 0.016588 0.506522 -0.862068
vn 0.016588 0.506522 -0.862068
vn 0.016588 0.506522 -0.862067
vn 0.016588 0.506522 -0.862067
vn 0.155824 -0.987411 -0.027181
vn 0.155824 -0.987411 -0.027181
vn 0.155824 -0.987411 -0.027181
vn 0.155824 -0.987411 -0.027181
vn -0.035423 0.582773 0.811863
vn -0.035423 0.582773 0.811863
vn -0.035423 0.582773 0.811863
vn -0.035423 0.582773 0.811862
vn 0.893841 0.444021 0.062398
vn 0.893841 0.444021 0.062398
vn 0.893841 0.444021 0.062398
f 21/131/1 22/132/2 23/133/3 24/134/4
f 3/101/5 12/102/6 9/103/7 5/104/8
f 13/135/9 14/136/10 15/137/11 16/138/12
f 7/115/13 10/116/14 11/117/15 1/118/16
f 2/72/17 8/73/18 6/74/19 4/75/20
f 25/83/21 21/87/22 24/88/23 26/84/24
f 9/139/25 6/140/26 8/141/27 10/142/28
f 11/117/15 10/116/14 8/124/29 2/125/30
f 12/143/31 11/144/32 2/145/33 4/146/34
f 9/103/7 12/102/6 4/107/35 6/108/36
f 5/104/37 9/103/38 27/109/39 17/110/40 18/111/41
f 69/76/42 70/77/43 20/78/44
f 10/116/45 7/115/46 19/119/47 20/120/48 70/121/49 29/122/50 28/123/51
f 7/79/52 5/80/53 18/81/54 19/82/55
f 18/111/41 17/110/40 14/113/56 13/114/57
f 19/82/55 18/81/54 13/85/58 16/86/59
f 20/120/48 19/119/47 16/129/60 15/130/61
f 17/89/62 69/90/63 20/91/64 15/92/65 14/93/66
f 1/118/67 11/117/68 22/126/69 21/127/70
f 11/97/71 12/98/72 23/99/73 22/100/74
f 12/102/75 3/101/76 24/105/77 23/106/78
f 7/115/79 1/118/80 21/127/81 25/128/82
f 3/101/83 5/104/84 26/112/85 24/105/86
f 5/80/87 7/79/88 25/83/89 26/84/90
f 9/147/91 10/148/92 28/149/93 27/150/94
f 69/40/95 20/41/96 70/42/97
f 27/43/98 28/44/99 31/45/100 30/1/101
f 28/67/102 29/68/103 32/3/104 31/2/105
f 29/46/106 27/47/107 30/1/108 32/3/109
f 30/1/110 31/45/111 34/48/112 33/4/113
f 31/2/114 32/3/115 35/6/116 34/5/117
f 32/3/118 30/1/119 33/4/120 35/6/121
f 33/4/122 34/48/123 37/49/124 36/7/125
f 34/5/126 35/6/127 38/9/128 37/8/129
f 35/6/130 33/4/131 36/7/132 38/9/133
f 36/7/134 37/49/135 40/50/136 39/10/137
f 37/8/138 38/9/139 41/12/140 40/11/141
f 38/9/142 36/7/143 39/10/144 41/12/145
f 39/10/146 40/50/147 43/51/148 42/13/149
f 40/11/150 41/12/151 44/15/152 43/14/153
f 41/12/154 39/10/155 42/13/156 44/15/157
f 42/13/158 43/51/159 46/52/160 45/16/161
f 43/14/162 44/15/163 47/18/164 46/17/165
f 44/15/166 42/13/167 45/16/168 47/18/169
f 45/16/170 46/52/171 49/53/172 48/19/173
f 46/17/174 47/18/175 50/21/176 49/20/177
f 47/18/178 45/16/179 48/19/180 50/21/181
f 48/19/182 49/53/183 52/54/184 51/22/185
f 49/20/186 50/21/187 53/24/188 52/23/189
f 50/21/190 48/19/191 51/22/192 53/24/193
f 51/22/194 52/54/195 55/55/196 54/56/197
f 52/23/198 53/24/199 56/57/200 55/69/201
f 53/24/202 51/22/203 54/56/204 56/57/205
f 54/25/206 55/58/207 58/59/208 57/28/209
f 55/26/210 56/27/211 59/30/212 58/29/213
f 56/27/214 54/25/215 57/28/216 59/30/217
f 57/28/218 58/59/219 61/60/220 60/31/221
f 58/29/222 59/30/223 62/33/224 61/32/225
f 59/30/226 57/28/227 60/31/228 62/33/229
f 60/31/230 61/60/231 64/61/232 63/34/233
f 61/32/234 62/33/235 65/36/236 64/35/237
f 62/33/238 60/31/239 63/34/240 65/36/241
f 63/34/242 64/61/243 67/62/244 66/37/245
f 64/35/246 65/36/247 68/39/248 67/38/249
f 65/36/250 63/34/251 66/37/252 68/39/253
f 66/37/254 67/62/255 20/63/256 69/64/257
f 67/38/258 68/39/259 70/70/260 20/71/261
f 68/39/262 66/37/263 69/65/264 70/66/265
f 27/94/266 29/95/267 70/96/268 69/90/63 17/89/62
